<svg xmlns="http://www.w3.org/2000/svg" viewBox="0 0 512 512">
  <defs>
    <linearGradient id="grad1" x1="0%" y1="0%" x2="100%" y2="100%">
      <stop offset="0%" style="stop-color:#4facfe;stop-opacity:1" />
      <stop offset="100%" style="stop-color:#00f2fe;stop-opacity:1" />
    </linearGradient>
  </defs>
  <rect width="512" height="512" rx="100" fill="url(#grad1)" />
  <path d="M140 370c0-60.8 0-130.2 0-191 0-16.6 13.4-30 30-30h172c16.6 0 30 13.4 30 30 0 60.8 0 130.2 0 191 0 16.6-13.4 30-30 30H170c-16.6 0-30-13.4-30-30z" fill="white" opacity="0.9"/>
  <path d="M170 149V130c0-27.6 22.4-50 50-50h72c27.6 0 50 22.4 50 50v19" stroke="white" stroke-width="35" stroke-linecap="round" fill="none"/>
  <circle cx="256" cy="280" r="40" fill="#4facfe" />
</svg>
